<mxfile host="65bd71144e" scale="1" border="10">
    <diagram name="Investment Research Sequence Diagram" id="investment-sequence">
        <mxGraphModel dx="884" dy="563" grid="1" gridSize="10" guides="1" tooltips="1" connect="1" arrows="1" fold="1" page="1" pageScale="1" pageWidth="1654" pageHeight="1169" background="#ffffff" math="0" shadow="0">
            <root>
                <mxCell id="0"/>
                <mxCell id="1" parent="0"/>
                <mxCell id="title" value="Investment Research Agent - Sequence Diagram" style="text;html=1;strokeColor=none;fillColor=none;align=center;verticalAlign=middle;whiteSpace=wrap;rounded=0;fontSize=24;fontStyle=1;" parent="1" vertex="1">
                    <mxGeometry x="200" y="20" width="1200" height="40" as="geometry"/>
                </mxCell>
                <mxCell id="user" value="User" style="shape=umlActor;verticalLabelPosition=bottom;verticalAlign=top;html=1;outlineConnect=0;fillColor=#fff2cc;strokeColor=#d6b656;" parent="1" vertex="1">
                    <mxGeometry x="80" y="80" width="30" height="60" as="geometry"/>
                </mxCell>
                <mxCell id="user-lifeline" value="" style="html=1;points=[];perimeter=orthogonalPerimeter;outlineConnect=0;targetShapes=umlLifeline;portConstraint=eastwest;strokeWidth=2;" parent="1" vertex="1">
                    <mxGeometry x="95" y="160" width="10" height="900" as="geometry"/>
                </mxCell>
                <mxCell id="gradio" value="Gradio&lt;br&gt;Interface" style="rounded=1;whiteSpace=wrap;html=1;fillColor=#fff2cc;strokeColor=#d6b656;" parent="1" vertex="1">
                    <mxGeometry x="180" y="80" width="80" height="60" as="geometry"/>
                </mxCell>
                <mxCell id="gradio-lifeline" value="" style="html=1;points=[];perimeter=orthogonalPerimeter;outlineConnect=0;targetShapes=umlLifeline;portConstraint=eastwest;strokeWidth=2;" parent="1" vertex="1">
                    <mxGeometry x="220" y="160" width="10" height="900" as="geometry"/>
                </mxCell>
                <mxCell id="coordinator" value="Main&lt;br&gt;Coordinator" style="rounded=1;whiteSpace=wrap;html=1;fillColor=#f8cecc;strokeColor=#b85450;" parent="1" vertex="1">
                    <mxGeometry x="320" y="80" width="80" height="60" as="geometry"/>
                </mxCell>
                <mxCell id="coordinator-lifeline" value="" style="html=1;points=[];perimeter=orthogonalPerimeter;outlineConnect=0;targetShapes=umlLifeline;portConstraint=eastwest;strokeWidth=2;" parent="1" vertex="1">
                    <mxGeometry x="360" y="160" width="10" height="900" as="geometry"/>
                </mxCell>
                <mxCell id="routing" value="Routing&lt;br&gt;Coordinator" style="rounded=1;whiteSpace=wrap;html=1;fillColor=#dae8fc;strokeColor=#6c8ebf;" parent="1" vertex="1">
                    <mxGeometry x="460" y="80" width="80" height="60" as="geometry"/>
                </mxCell>
                <mxCell id="routing-lifeline" value="" style="html=1;points=[];perimeter=orthogonalPerimeter;outlineConnect=0;targetShapes=umlLifeline;portConstraint=eastwest;strokeWidth=2;" parent="1" vertex="1">
                    <mxGeometry x="500" y="160" width="10" height="900" as="geometry"/>
                </mxCell>
                <mxCell id="specialists" value="Specialist&lt;br&gt;Agents" style="rounded=1;whiteSpace=wrap;html=1;fillColor=#e1d5e7;strokeColor=#9673a6;" parent="1" vertex="1">
                    <mxGeometry x="600" y="80" width="80" height="60" as="geometry"/>
                </mxCell>
                <mxCell id="specialists-lifeline" value="" style="html=1;points=[];perimeter=orthogonalPerimeter;outlineConnect=0;targetShapes=umlLifeline;portConstraint=eastwest;strokeWidth=2;" parent="1" vertex="1">
                    <mxGeometry x="640" y="160" width="10" height="900" as="geometry"/>
                </mxCell>
                <mxCell id="datasources" value="Data&lt;br&gt;Sources" style="rounded=1;whiteSpace=wrap;html=1;fillColor=#fad9d5;strokeColor=#ae4132;" parent="1" vertex="1">
                    <mxGeometry x="740" y="80" width="80" height="60" as="geometry"/>
                </mxCell>
                <mxCell id="datasources-lifeline" value="" style="html=1;points=[];perimeter=orthogonalPerimeter;outlineConnect=0;targetShapes=umlLifeline;portConstraint=eastwest;strokeWidth=2;" parent="1" vertex="1">
                    <mxGeometry x="780" y="160" width="10" height="900" as="geometry"/>
                </mxCell>
                <mxCell id="memory" value="Memory&lt;br&gt;System" style="rounded=1;whiteSpace=wrap;html=1;fillColor=#d0cee2;strokeColor=#56517e;" parent="1" vertex="1">
                    <mxGeometry x="880" y="80" width="80" height="60" as="geometry"/>
                </mxCell>
                <mxCell id="memory-lifeline" value="" style="html=1;points=[];perimeter=orthogonalPerimeter;outlineConnect=0;targetShapes=umlLifeline;portConstraint=eastwest;strokeWidth=2;" parent="1" vertex="1">
                    <mxGeometry x="920" y="160" width="10" height="900" as="geometry"/>
                </mxCell>
                <mxCell id="evaluator" value="Evaluator-&lt;br&gt;Optimizer" style="rounded=1;whiteSpace=wrap;html=1;fillColor=#dae8fc;strokeColor=#6c8ebf;" parent="1" vertex="1">
                    <mxGeometry x="1020" y="80" width="80" height="60" as="geometry"/>
                </mxCell>
                <mxCell id="evaluator-lifeline" value="" style="html=1;points=[];perimeter=orthogonalPerimeter;outlineConnect=0;targetShapes=umlLifeline;portConstraint=eastwest;strokeWidth=2;" parent="1" vertex="1">
                    <mxGeometry x="1060" y="160" width="10" height="900" as="geometry"/>
                </mxCell>
                <mxCell id="openai" value="Azure&lt;br&gt;OpenAI" style="rounded=1;whiteSpace=wrap;html=1;fillColor=#fad9d5;strokeColor=#ae4132;" parent="1" vertex="1">
                    <mxGeometry x="1160" y="80" width="80" height="60" as="geometry"/>
                </mxCell>
                <mxCell id="openai-lifeline" value="" style="html=1;points=[];perimeter=orthogonalPerimeter;outlineConnect=0;targetShapes=umlLifeline;portConstraint=eastwest;strokeWidth=2;" parent="1" vertex="1">
                    <mxGeometry x="1200" y="160" width="10" height="900" as="geometry"/>
                </mxCell>
                <mxCell id="seq2" value="2. Initialize Research Process" style="html=1;verticalAlign=bottom;endArrow=block;strokeColor=#b85450;strokeWidth=2;" parent="1" edge="1">
                    <mxGeometry relative="1" as="geometry">
                        <mxPoint x="230" y="200" as="sourcePoint"/>
                        <mxPoint x="360" y="200" as="targetPoint"/>
                    </mxGeometry>
                </mxCell>
                <mxCell id="seq3" value="3. Create Research Plan" style="html=1;verticalAlign=bottom;endArrow=block;strokeColor=#6c8ebf;strokeWidth=2;" parent="1" edge="1">
                    <mxGeometry relative="1" as="geometry">
                        <mxPoint x="365" y="220" as="sourcePoint"/>
                        <mxPoint x="1200" y="220" as="targetPoint"/>
                    </mxGeometry>
                </mxCell>
                <mxCell id="seq4" value="4. Return Plan" style="html=1;verticalAlign=bottom;endArrow=block;strokeColor=#6c8ebf;strokeWidth=2;dashed=1;" parent="1" edge="1">
                    <mxGeometry relative="1" as="geometry">
                        <mxPoint x="1200" y="240" as="sourcePoint"/>
                        <mxPoint x="370" y="240" as="targetPoint"/>
                    </mxGeometry>
                </mxCell>
                <mxCell id="seq5" value="5. Check Past Experience" style="html=1;verticalAlign=bottom;endArrow=block;strokeColor=#56517e;strokeWidth=2;" parent="1" edge="1">
                    <mxGeometry relative="1" as="geometry">
                        <mxPoint x="365" y="260" as="sourcePoint"/>
                        <mxPoint x="920" y="260" as="targetPoint"/>
                    </mxGeometry>
                </mxCell>
                <mxCell id="seq6" value="6. Return Experience" style="html=1;verticalAlign=bottom;endArrow=block;strokeColor=#56517e;strokeWidth=2;dashed=1;" parent="1" edge="1">
                    <mxGeometry relative="1" as="geometry">
                        <mxPoint x="920" y="280" as="sourcePoint"/>
                        <mxPoint x="370" y="280" as="targetPoint"/>
                    </mxGeometry>
                </mxCell>
                <mxCell id="seq7" value="7. Route Analysis Request" style="html=1;verticalAlign=bottom;endArrow=block;strokeColor=#6c8ebf;strokeWidth=2;" parent="1" edge="1">
                    <mxGeometry relative="1" as="geometry">
                        <mxPoint x="370" y="300" as="sourcePoint"/>
                        <mxPoint x="500" y="300" as="targetPoint"/>
                    </mxGeometry>
                </mxCell>
                <mxCell id="seq10" value="10. Return Data" style="html=1;verticalAlign=bottom;endArrow=block;strokeColor=#ae4132;strokeWidth=2;dashed=1;" parent="1" edge="1">
                    <mxGeometry relative="1" as="geometry">
                        <mxPoint x="780" y="360" as="sourcePoint"/>
                        <mxPoint x="650" y="360" as="targetPoint"/>
                    </mxGeometry>
                </mxCell>
                <mxCell id="seq11" value="11. Perform Specialist Analysis&lt;br&gt;(LLM Processing)" style="html=1;verticalAlign=bottom;endArrow=block;strokeColor=#ae4132;strokeWidth=2;" parent="1" edge="1">
                    <mxGeometry relative="1" as="geometry">
                        <mxPoint x="645" y="380" as="sourcePoint"/>
                        <mxPoint x="1200" y="380" as="targetPoint"/>
                    </mxGeometry>
                </mxCell>
                <mxCell id="seq12" value="12. Return Analysis Results" style="html=1;verticalAlign=bottom;endArrow=block;strokeColor=#ae4132;strokeWidth=2;dashed=1;" parent="1" edge="1">
                    <mxGeometry relative="1" as="geometry">
                        <mxPoint x="1200" y="400" as="sourcePoint"/>
                        <mxPoint x="650" y="400" as="targetPoint"/>
                    </mxGeometry>
                </mxCell>
                <mxCell id="seq13" value="13. Cache Analysis Results" style="html=1;verticalAlign=bottom;endArrow=block;strokeColor=#56517e;strokeWidth=2;" parent="1" edge="1">
                    <mxGeometry relative="1" as="geometry">
                        <mxPoint x="645" y="420" as="sourcePoint"/>
                        <mxPoint x="920" y="420" as="targetPoint"/>
                    </mxGeometry>
                </mxCell>
                <mxCell id="seq14" value="14. Return All Specialist Results" style="html=1;verticalAlign=bottom;endArrow=block;strokeColor=#9673a6;strokeWidth=2;dashed=1;" parent="1" edge="1">
                    <mxGeometry relative="1" as="geometry">
                        <mxPoint x="640" y="440" as="sourcePoint"/>
                        <mxPoint x="510" y="440" as="targetPoint"/>
                    </mxGeometry>
                </mxCell>
                <mxCell id="seq15" value="15. Send to Evaluator-Optimizer" style="html=1;verticalAlign=bottom;endArrow=block;strokeColor=#6c8ebf;strokeWidth=2;" parent="1" edge="1">
                    <mxGeometry relative="1" as="geometry">
                        <mxPoint x="510" y="460" as="sourcePoint"/>
                        <mxPoint x="1060" y="460" as="targetPoint"/>
                    </mxGeometry>
                </mxCell>
                <mxCell id="seq18" value="18. Return Final Analysis" style="html=1;verticalAlign=bottom;endArrow=block;strokeColor=#6c8ebf;strokeWidth=2;dashed=1;" parent="1" edge="1">
                    <mxGeometry relative="1" as="geometry">
                        <mxPoint x="1060" y="520" as="sourcePoint"/>
                        <mxPoint x="370" y="520" as="targetPoint"/>
                    </mxGeometry>
                </mxCell>
                <mxCell id="seq19" value="19. Perform Self-Reflection" style="html=1;verticalAlign=bottom;endArrow=block;strokeColor=#b85450;strokeWidth=2;" parent="1" edge="1">
                    <mxGeometry relative="1" as="geometry">
                        <mxPoint x="365" y="540" as="sourcePoint"/>
                        <mxPoint x="1200" y="540" as="targetPoint"/>
                    </mxGeometry>
                </mxCell>
                <mxCell id="seq20" value="20. Store Learning Experience" style="html=1;verticalAlign=bottom;endArrow=block;strokeColor=#56517e;strokeWidth=2;" parent="1" edge="1">
                    <mxGeometry relative="1" as="geometry">
                        <mxPoint x="365" y="560" as="sourcePoint"/>
                        <mxPoint x="920" y="560" as="targetPoint"/>
                    </mxGeometry>
                </mxCell>
                <mxCell id="user-activation" value="" style="html=1;points=[];perimeter=orthogonalPerimeter;outlineConnect=0;targetShapes=umlLifeline;portConstraint=eastwest;fillColor=#fff2cc;strokeColor=#d6b656;" parent="1" vertex="1">
                    <mxGeometry x="95" y="170" width="10" height="30" as="geometry"/>
                </mxCell>
                <mxCell id="interface-activation" value="" style="html=1;points=[];perimeter=orthogonalPerimeter;outlineConnect=0;targetShapes=umlLifeline;portConstraint=eastwest;fillColor=#fff2cc;strokeColor=#d6b656;" parent="1" vertex="1">
                    <mxGeometry x="220" y="190" width="10" height="420" as="geometry"/>
                </mxCell>
                <mxCell id="coordinator-activation" value="" style="html=1;points=[];perimeter=orthogonalPerimeter;outlineConnect=0;targetShapes=umlLifeline;portConstraint=eastwest;fillColor=#f8cecc;strokeColor=#b85450;" parent="1" vertex="1">
                    <mxGeometry x="360" y="210" width="10" height="380" as="geometry"/>
                </mxCell>
                <mxCell id="routing-activation" value="" style="html=1;points=[];perimeter=orthogonalPerimeter;outlineConnect=0;targetShapes=umlLifeline;portConstraint=eastwest;fillColor=#dae8fc;strokeColor=#6c8ebf;" parent="1" vertex="1">
                    <mxGeometry x="500" y="290" width="10" height="180" as="geometry"/>
                </mxCell>
                <mxCell id="specialists-activation" value="" style="html=1;points=[];perimeter=orthogonalPerimeter;outlineConnect=0;targetShapes=umlLifeline;portConstraint=eastwest;fillColor=#e1d5e7;strokeColor=#9673a6;" parent="1" vertex="1">
                    <mxGeometry x="640" y="310" width="10" height="140" as="geometry"/>
                </mxCell>
                <mxCell id="evaluator-activation" value="" style="html=1;points=[];perimeter=orthogonalPerimeter;outlineConnect=0;targetShapes=umlLifeline;portConstraint=eastwest;fillColor=#dae8fc;strokeColor=#6c8ebf;" parent="1" vertex="1">
                    <mxGeometry x="1060" y="450" width="10" height="80" as="geometry"/>
                </mxCell>
                <mxCell id="notes" value="&amp;nbsp; &amp;nbsp; &amp;nbsp; &lt;span style=&quot;white-space: pre;&quot;&gt;&#x9;&lt;/span&gt;KEY WORKFLOW PATTERNS:&lt;br&gt;&lt;br&gt;&lt;span style=&quot;white-space: pre;&quot;&gt;&#x9;&lt;/span&gt;1. PROMPT CHAINING: News Processing (Steps 9-13)&lt;br&gt;&lt;span style=&quot;white-space: pre;&quot;&gt;&#x9;&lt;/span&gt;2. ROUTING: Specialist Selection (Steps 7-14)&lt;br&gt;&lt;span style=&quot;white-space: pre;&quot;&gt;&#x9;&lt;/span&gt;3. EVALUATOR-OPTIMIZER: Quality Improvement (Steps 15-18)&lt;br&gt;&lt;span style=&quot;white-space: pre;&quot;&gt;&#x9;&lt;/span&gt;4. MEMORY AND CACHING: Performance Optimization (Steps 5, 13, 20)&lt;br&gt;&lt;br&gt;&lt;span style=&quot;white-space: pre;&quot;&gt;&#x9;&lt;/span&gt;TYPICAL PERFORMANCE:&lt;br&gt;&lt;span style=&quot;white-space: pre;&quot;&gt;&#x9;&lt;/span&gt;• Total Execution Time: 180-300 seconds&lt;br&gt;&lt;span style=&quot;white-space: pre;&quot;&gt;&#x9;&lt;/span&gt;• Quality Score Target: ≥ 8.0/10.0&lt;br&gt;&lt;span style=&quot;white-space: pre;&quot;&gt;&#x9;&lt;/span&gt;• Cache Hit Rate: 60-80%&lt;br&gt;&lt;span style=&quot;white-space: pre;&quot;&gt;&#x9;&lt;/span&gt;• Specialist Activation: 4-5 agents" style="rounded=1;whiteSpace=wrap;html=1;fillColor=#f5f5f5;strokeColor=#666666;fontSize=10;align=left;verticalAlign=top;" parent="1" vertex="1">
                    <mxGeometry x="80" y="640" width="380" height="170" as="geometry"/>
                </mxCell>
                <mxCell id="seq22" value="22. Display Results to User" style="html=1;verticalAlign=bottom;endArrow=block;strokeColor=#d6b656;strokeWidth=2;dashed=1;" parent="1" edge="1">
                    <mxGeometry relative="1" as="geometry">
                        <mxPoint x="220" y="600" as="sourcePoint"/>
                        <mxPoint x="105" y="600" as="targetPoint"/>
                    </mxGeometry>
                </mxCell>
                <mxCell id="seq21" value="21. Return Complete Analysis" style="html=1;verticalAlign=bottom;endArrow=block;strokeColor=#b85450;strokeWidth=2;dashed=1;" parent="1" edge="1">
                    <mxGeometry relative="1" as="geometry">
                        <mxPoint x="360" y="580" as="sourcePoint"/>
                        <mxPoint x="230" y="580" as="targetPoint"/>
                    </mxGeometry>
                </mxCell>
                <mxCell id="seq17" value="17. Return Optimized Analysis" style="html=1;verticalAlign=bottom;endArrow=block;strokeColor=#6c8ebf;strokeWidth=2;dashed=1;" parent="1" edge="1">
                    <mxGeometry relative="1" as="geometry">
                        <mxPoint x="1200" y="500" as="sourcePoint"/>
                        <mxPoint x="1070" y="500" as="targetPoint"/>
                    </mxGeometry>
                </mxCell>
                <mxCell id="seq16" value="16. Evaluate and Optimize Analysis" style="html=1;verticalAlign=bottom;endArrow=block;strokeColor=#6c8ebf;strokeWidth=2;" parent="1" edge="1">
                    <mxGeometry relative="1" as="geometry">
                        <mxPoint x="1065" y="480" as="sourcePoint"/>
                        <mxPoint x="1200" y="480" as="targetPoint"/>
                    </mxGeometry>
                </mxCell>
                <mxCell id="seq8" value="8. Activate Specialists&lt;br&gt;(Technical, Fundamental, News, SEC, Recommendation)" style="html=1;verticalAlign=bottom;endArrow=block;strokeColor=#9673a6;strokeWidth=2;" parent="1" edge="1">
                    <mxGeometry relative="1" as="geometry">
                        <mxPoint x="510" y="320" as="sourcePoint"/>
                        <mxPoint x="640" y="320" as="targetPoint"/>
                        <mxPoint as="offset"/>
                    </mxGeometry>
                </mxCell>
                <mxCell id="seq9" value="9. Retrieve Data&lt;br&gt;(Yahoo Finance, NewsAPI, Alpha Vantage, FRED, SEC)" style="html=1;verticalAlign=bottom;endArrow=block;strokeColor=#ae4132;strokeWidth=2;" parent="1" edge="1">
                    <mxGeometry relative="1" as="geometry">
                        <mxPoint x="645" y="340" as="sourcePoint"/>
                        <mxPoint x="780" y="340" as="targetPoint"/>
                    </mxGeometry>
                </mxCell>
                <mxCell id="seq1" value="1. Submit Analysis Request&lt;br&gt;(Symbol: AAPL, Type: Comprehensive)" style="html=1;verticalAlign=bottom;endArrow=block;strokeColor=#d6b656;strokeWidth=2;" parent="1" edge="1">
                    <mxGeometry relative="1" as="geometry">
                        <mxPoint x="105" y="180" as="sourcePoint"/>
                        <mxPoint x="220" y="180" as="targetPoint"/>
                    </mxGeometry>
                </mxCell>
            </root>
        </mxGraphModel>
    </diagram>
</mxfile>